<?xml version="1.0" standalone="no"?>
<!DOCTYPE svg PUBLIC "-//W3C//DTD SVG 20010904//EN"
 "http://www.w3.org/TR/2001/REC-SVG-20010904/DTD/svg10.dtd">
<svg version="1.0" xmlns="http://www.w3.org/2000/svg"
 width="406.000000pt" height="406.000000pt" viewBox="0 0 406.000000 406.000000"
 preserveAspectRatio="xMidYMid meet">
<metadata>
Created by potrace 1.14, written by Peter Selinger 2001-2017
</metadata>
<g transform="translate(0.000000,406.000000) scale(0.100000,-0.100000)"
fill="#000000" stroke="none">
<path d="M128 3558 c-10 -29 -2 -259 9 -266 6 -4 68 -7 137 -6 69 0 126 -2
127 -5 1 -3 2 -568 3 -1255 1 -1101 -1 -1252 -14 -1269 -21 -25 -50 -13 -50
22 -1 14 -1 290 -1 614 l-1 587 -163 0 c-121 0 -164 -3 -167 -12 -2 -7 -3
-292 -3 -633 1 -487 4 -629 15 -660 47 -142 169 -207 376 -199 165 6 267 61
317 172 l21 47 1 1438 0 1437 -301 0 c-233 0 -303 -3 -306 -12z"/>
<path d="M889 3553 c-2 -39 -7 -176 -13 -338 -4 -93 -8 -208 -11 -255 -2 -47
-7 -161 -11 -255 -3 -93 -7 -204 -9 -245 -2 -41 -6 -151 -9 -245 -4 -93 -9
-206 -11 -250 -2 -44 -7 -156 -10 -250 -4 -93 -8 -210 -10 -260 -2 -49 -7
-164 -10 -255 -3 -91 -8 -196 -10 -235 -2 -38 -7 -161 -11 -272 l-7 -203 167
0 c91 0 167 3 167 8 4 22 7 180 10 450 l3 303 40 -3 41 -3 2 -60 c1 -59 11
-569 12 -652 l1 -43 170 0 170 0 -4 67 c-3 38 -7 145 -11 238 -3 94 -8 222
-10 285 -3 63 -7 174 -10 245 -3 72 -7 182 -10 245 -3 63 -7 180 -10 260 -3
80 -7 192 -10 250 -3 58 -7 170 -10 250 -3 80 -7 201 -10 270 -3 69 -7 179
-10 245 -6 144 -16 403 -20 500 -2 39 -4 105 -4 148 l-1 77 -270 0 c-250 0
-270 -1 -271 -17z m282 -600 c0 -148 3 -389 6 -538 3 -148 6 -409 7 -580 l1
-310 -35 1 c-19 0 -34 5 -33 11 1 6 5 221 8 479 4 258 8 557 10 664 2 107 4
273 4 368 1 146 3 172 16 172 13 0 15 -37 16 -267z"/>
<path d="M1464 3523 c6 -50 12 -107 21 -208 3 -33 8 -71 10 -85 2 -14 7 -63
11 -110 3 -47 7 -92 9 -100 2 -8 6 -44 10 -80 3 -36 8 -81 10 -100 2 -19 6
-64 10 -100 4 -36 8 -78 10 -95 2 -16 6 -66 10 -110 4 -44 8 -87 10 -96 2 -8
6 -55 10 -105 4 -49 9 -98 11 -109 2 -11 6 -49 9 -85 3 -36 7 -76 10 -90 2
-14 7 -59 10 -100 3 -41 8 -86 10 -100 2 -14 7 -54 10 -90 4 -36 8 -83 10
-105 5 -42 10 -96 20 -205 4 -36 8 -76 10 -90 14 -94 19 -228 19 -528 l1 -342
165 0 166 0 -1 333 c0 182 3 361 7 397 3 36 9 99 13 140 3 41 8 86 10 100 2
14 7 57 10 95 12 127 15 160 20 200 2 22 7 69 10 105 3 36 8 81 10 100 2 19 6
62 10 95 3 33 7 78 10 100 2 22 7 72 10 110 3 39 8 81 10 95 2 14 7 61 11 105
3 44 8 88 9 97 2 9 6 48 10 85 3 37 8 84 10 103 2 19 7 62 10 95 7 70 14 145
20 195 3 19 7 62 10 95 4 54 8 84 20 205 12 118 18 178 19 200 l1 25 -177 3
-178 2 1 -22 c2 -20 -6 -291 -16 -603 -2 -55 -7 -215 -10 -355 -14 -540 -12
-497 -24 -485 -5 6 -13 147 -17 315 -3 168 -8 334 -9 370 -2 36 -6 160 -10
275 -3 116 -8 253 -10 305 -2 52 -4 119 -5 148 l0 52 -181 0 -180 0 5 -47z"/>
<path d="M2300 2030 l0 -1540 165 0 165 0 0 495 0 495 63 1 c85 1 114 6 172
33 90 41 157 133 170 236 8 61 8 1515 0 1565 -19 117 -91 201 -203 235 -56 18
-93 20 -298 20 l-234 0 0 -1540z m387 1238 c14 -15 15 -96 15 -743 0 -680 -1
-727 -17 -745 -10 -11 -26 -20 -37 -20 -17 0 -18 28 -18 764 0 764 0 765 20
763 12 -1 28 -9 37 -19z"/>
<path d="M3100 2030 l0 -1540 165 0 165 0 0 860 0 860 310 0 310 0 0 23 c1 42
2 592 1 615 l-1 22 -310 0 -310 0 0 350 0 350 -165 0 -165 0 0 -1540z"/>
</g>
</svg>
